Jump_normalized_Motion_pl07
version=1
nRows=23
nColumns=43
inDegrees=yes
endheader
time		pelvis_tilt		pelvis_list		pelvis_rotation		pelvis_tx		pelvis_ty		pelvis_tz		hip_flexion_r		hip_adduction_r		hip_rotation_r		knee_angle_r		ankle_angle_r		subtalar_angle_r		mtp_angle_r		hip_flexion_l		hip_adduction_l		hip_rotation_l		knee_angle_l		ankle_angle_l		subtalar_angle_l		mtp_angle_l		lumbar_extension		lumbar_bending		lumbar_rotation		neck_flexion		neck_lateral_bending		neck_rotation		arm_flex_r		arm_add_r		arm_rot_r		elbow_flex_r		pro_sup_r		wrist_flex_r		wrist_dev_r		hand_finger_flex_r		arm_flex_l		arm_add_l		arm_rot_l		elbow_flex_l		pro_sup_l		wrist_flex_l		wrist_dev_l		hand_finger_flex_l		
0.373333		-1.935017		-27.657365		91.168559		0.013301		1.846935		1.645191		57.476424		-4.628485		4.645911		-114.292312		24.868875		-3.494416		3.646552		58.020891		-0.140999		3.084700		-113.009910		27.715016		-18.112186		5.967338		-34.779796		-1.486042		-0.068114		29.274421		1.404965		-1.858454		143.159696		-3.387946		32.667805		49.211110		63.819549		-33.388804		-4.011531		47.938188		141.474435		-1.380302		20.248154		58.932809		-97.449070		-7.655647		-17.891318		-90.000210		
0.376263		-1.873133		-27.301257		91.170639		0.013213		1.849124		1.638610		56.350982		-4.671767		4.491966		-113.724567		24.381402		-3.513196		3.768533		56.892487		-0.256018		3.059625		-112.529939		27.358485		-18.142199		6.034744		-34.894799		-1.444651		0.032295		28.848954		1.393940		-1.869266		143.257104		-3.271288		32.439469		49.142728		64.016036		-33.521365		-4.258722		47.916713		141.575331		-1.294908		20.089428		58.956501		-97.146326		-7.522766		-17.817397		-90.000210		
0.379192		-1.833904		-27.109623		91.179572		0.013052		1.850939		1.632235		55.459168		-4.758464		4.357307		-113.229250		23.903300		-3.464716		3.858840		55.994145		-0.358336		3.000164		-112.068728		26.964754		-18.072806		6.084085		-34.825444		-1.416550		0.130624		28.428658		1.386975		-1.875830		143.369824		-3.211963		32.302213		49.074284		64.180213		-33.588172		-4.415383		47.914922		141.672681		-1.223733		20.011222		58.982900		-96.908334		-7.457730		-17.759717		-90.000210		
0.382121		-1.833811		-27.031268		91.136878		0.012863		1.852426		1.625896		54.753155		-4.845731		4.311729		-112.768147		23.212674		-3.264561		3.847639		55.262886		-0.417938		2.968482		-111.721010		26.394490		-17.857479		6.074793		-34.557263		-1.428953		0.222770		27.753066		1.387225		-1.896844		143.344190		-3.166156		32.216073		49.054038		64.263752		-33.624163		-4.489520		47.923813		141.628312		-1.194992		19.941751		59.008790		-96.809072		-7.449101		-17.724154		-90.000210		
0.385051		-1.847605		-26.889921		91.096259		0.012684		1.853991		1.619473		53.986158		-4.951343		4.261133		-112.339401		22.567186		-3.121867		3.853862		54.458248		-0.498136		2.878802		-111.300351		25.847483		-17.676917		6.072960		-34.386000		-1.457252		0.340301		27.151932		1.376587		-1.916939		143.349998		-3.130104		32.076051		49.016760		64.385275		-33.681268		-4.610437		47.930345		141.600285		-1.106358		19.831011		59.064812		-96.703355		-7.440793		-17.675100		-90.000210		
0.387980		-1.962709		-26.185684		90.908223		0.012590		1.856560		1.612247		52.539744		-5.021307		4.321623		-111.786516		21.857319		-3.182622		4.093362		52.924019		-0.541502		2.706719		-110.830182		25.327997		-17.693474		6.210623		-34.854290		-1.594843		0.462433		26.710846		1.334263		-1.987717		143.357549		-3.001137		31.829115		48.918729		64.877238		-33.763240		-4.962419		48.003456		141.580105		-0.950640		19.498533		59.040603		-96.336530		-7.457401		-17.561902		-90.000210		
0.390909		-2.023114		-26.132237		90.811821		0.012388		1.857814		1.605873		51.952838		-5.158509		4.331365		-111.401305		21.077004		-2.931488		4.087615		52.287618		-0.569632		2.637759		-110.526473		24.572461		-17.374338		6.190850		-34.558527		-1.675115		0.568170		26.055500		1.368653		-2.019940		143.332413		-3.002183		31.828653		48.875098		65.000405		-33.761929		-4.990985		48.043198		141.513924		-0.936114		19.527973		59.085082		-96.273283		-7.535264		-17.560504		-90.000210		
0.393838		-2.127998		-25.936845		90.661655		0.012263		1.859337		1.599261		51.216223		-5.269949		4.409780		-111.002843		20.186285		-2.738293		4.089870		51.473554		-0.582918		2.524397		-110.178731		23.799918		-17.117071		6.180539		-34.413720		-1.808925		0.676860		25.369992		1.372741		-2.074376		143.240394		-2.983376		31.756774		48.859119		65.180361		-33.808728		-5.101364		48.079966		141.393265		-0.881831		19.443960		59.139108		-96.219981		-7.594698		-17.553252		-90.000210		
0.396768		-2.384944		-25.364534		90.339988		0.012285		1.861563		1.592157		50.079820		-5.413731		4.633788		-110.569451		19.239653		-2.774681		4.270639		50.145092		-0.581419		2.183740		-109.687071		23.064334		-17.127198		6.273328		-34.730429		-2.135477		0.825407		24.821684		1.351333		-2.169391		143.198290		-2.946368		31.566880		48.810599		65.669270		-33.944314		-5.385202		48.161938		141.322709		-0.721136		19.210079		59.172158		-96.103271		-7.700818		-17.583908		-90.000210		
0.399697		-2.527310		-25.096877		90.152710		0.012163		1.863132		1.585432		49.321923		-5.554228		4.756751		-110.195179		18.295702		-2.595186		4.337812		49.289386		-0.581291		2.020420		-109.343372		22.162187		-16.892156		6.287505		-34.681374		-2.319061		0.941760		24.208890		1.402294		-2.228592		143.143348		-2.950772		31.550844		48.753408		65.948966		-33.992281		-5.472571		48.230183		141.226240		-0.679209		19.202414		59.225003		-96.048997		-7.813081		-17.630707		-90.000210		
0.402626		-2.765806		-24.540358		89.855369		0.012145		1.865221		1.578281		48.271037		-5.729609		4.959789		-109.786973		17.137524		-2.656516		4.543555		48.052181		-0.550434		1.713832		-108.905008		21.237413		-16.950726		6.387699		-34.960912		-2.627593		1.094011		23.612835		1.392398		-2.318869		143.044975		-2.942252		31.398137		48.749719		66.437396		-34.170465		-5.659958		48.321719		141.100750		-0.550134		19.035387		59.289466		-96.016529		-7.899169		-17.738136		-90.000210		
0.405556		-2.831133		-24.396111		89.742461		0.012028		1.866458		1.571687		47.720971		-5.870473		4.992450		-109.450565		16.074818		-2.388251		4.501790		47.458198		-0.556827		1.684273		-108.675650		20.149742		-16.570776		6.330725		-34.760822		-2.735309		1.205385		22.918170		1.472073		-2.367444		142.957191		-2.987197		31.477865		48.707591		66.580555		-34.197068		-5.650527		48.360346		140.953515		-0.561793		19.134342		59.375789		-96.027580		-7.980922		-17.795263		-90.000210		
0.408485		-2.967749		-23.952725		89.563388		0.011945		1.868249		1.564677		46.849772		-6.020580		5.096718		-109.065437		14.769957		-2.439906		4.533998		46.480016		-0.527343		1.531162		-108.345541		19.020707		-16.521443		6.315746		-34.902786		-2.921385		1.344756		22.263237		1.485581		-2.456065		142.833185		-3.025281		31.464360		48.726928		66.909943		-34.355753		-5.746644		48.397414		140.788593		-0.496148		19.076672		59.448411		-96.068519		-8.019116		-17.906810		-90.000210		
0.411414		-3.112850		-23.458429		89.377124		0.011891		1.870066		1.557648		45.956369		-6.191777		5.183697		-108.691213		13.460154		-2.545381		4.611433		45.476298		-0.500687		1.358703		-108.031254		17.807113		-16.507591		6.311574		-35.115369		-3.125422		1.496147		21.655032		1.538570		-2.554339		142.752718		-3.066968		31.468973		48.697441		67.287798		-34.524383		-5.821702		48.446071		140.641857		-0.431632		19.049541		59.524290		-96.120063		-8.074312		-18.045078		-90.000210		
0.414343		-3.232074		-22.999662		89.235585		0.011801		1.871801		1.550665		45.133944		-6.364426		5.239967		-108.323903		11.981415		-2.700536		4.700497		44.570352		-0.452377		1.242735		-107.737789		16.475318		-16.527341		6.302111		-35.286141		-3.291147		1.620602		21.017962		1.578254		-2.657171		142.636847		-3.122036		31.484320		48.701702		67.641968		-34.675829		-5.847104		48.507367		140.477407		-0.389152		19.051134		59.597961		-96.224625		-8.143903		-18.183558		-90.000210		
0.417273		-3.303394		-22.712080		89.140995		0.011663		1.873170		1.543955		44.535435		-6.504335		5.293562		-107.990293		10.616025		-2.596930		4.699855		43.953481		-0.429872		1.207967		-107.537161		15.077683		-16.240280		6.241501		-35.265573		-3.395480		1.726412		20.323133		1.672560		-2.743877		142.530322		-3.179092		31.581777		48.660662		67.858826		-34.737380		-5.816532		48.557083		140.305670		-0.414352		19.155988		59.669962		-96.300827		-8.234821		-18.282007		-90.000210		
0.420202		-3.369915		-22.433854		89.044731		0.011571		1.874412		1.537298		44.008792		-6.676767		5.289920		-107.689477		9.094581		-2.534495		4.623231		43.396117		-0.413031		1.183911		-107.366603		13.611653		-15.964600		6.150985		-35.231676		-3.506795		1.857440		19.604415		1.744128		-2.838931		142.401999		-3.262659		31.669725		48.644939		68.034585		-34.799580		-5.798072		48.583803		140.105585		-0.433574		19.272887		59.758526		-96.391233		-8.325236		-18.356973		-90.000210		
0.423131		-3.495368		-21.921882		88.901617		0.011532		1.876152		1.530346		43.235890		-6.834640		5.331971		-107.318218		7.208647		-3.136576		4.688474		42.540405		-0.356323		1.041795		-107.064219		11.939051		-16.286847		6.147102		-35.487433		-3.682980		1.991275		19.015476		1.768480		-2.991605		142.277834		-3.334396		31.716700		48.654190		68.436103		-34.983718		-5.813845		48.615308		139.939481		-0.400430		19.298089		59.809643		-96.613552		-8.405713		-18.502179		-90.000210		
0.426061		-3.560740		-21.630951		88.804664		0.011451		1.877387		1.523761		42.749794		-6.968973		5.365281		-107.001030		5.533286		-3.224509		4.663716		42.042051		-0.350007		0.996966		-106.878212		10.259025		-16.118413		6.125952		-35.494111		-3.789333		2.108642		18.342076		1.862427		-3.100595		142.172033		-3.403518		31.850416		48.597645		68.650805		-35.035142		-5.757785		48.650582		139.752551		-0.455910		19.450964		59.897872		-96.773318		-8.501349		-18.596663		-90.000210		
0.428990		-3.635385		-21.303340		88.704284		0.011381		1.878667		1.517156		42.255022		-7.094095		5.410836		-106.677201		3.700275		-3.462185		4.650784		41.520204		-0.339686		0.929989		-106.661079		8.474339		-16.071349		6.144488		-35.551925		-3.903523		2.227964		17.687134		1.922246		-3.215078		142.056241		-3.480114		31.984961		48.561727		68.893867		-35.104011		-5.708629		48.683131		139.562349		-0.503600		19.590654		59.981106		-96.972570		-8.583889		-18.701722		-90.000210		
0.431919		-3.714711		-20.969276		88.581263		0.011362		1.879901		1.510594		41.801266		-7.219090		5.433889		-106.353127		1.667339		-3.930235		4.638503		41.021532		-0.336721		0.827242		-106.439537		6.561887		-16.225762		6.267037		-35.628726		-4.032389		2.371898		17.089734		1.933406		-3.324384		141.950381		-3.569825		32.150350		48.539926		69.132627		-35.189040		-5.653953		48.703188		139.372345		-0.551002		19.720873		60.064408		-97.235651		-8.631370		-18.821397		-90.000210		
0.434848		-3.763243		-20.725245		88.494288		0.011331		1.880895		1.504183		41.434628		-7.338482		5.459285		-106.036611		-0.034230		-3.905005		4.557838		40.693895		-0.374106		0.783090		-106.276002		4.708464		-15.900335		6.282294		-35.604836		-4.125531		2.487555		16.399687		2.068486		-3.418006		141.863096		-3.643259		32.364242		48.436961		69.263334		-35.206366		-5.565259		48.724651		139.160283		-0.636196		19.908006		60.182626		-97.395573		-8.710668		-18.905471		-90.000210		
0.437778		-3.817458		-20.464352		88.410604		0.011217		1.881919		1.497790		41.098863		-7.425794		5.536479		-105.714243		-2.026161		-4.090892		4.434921		40.352442		-0.370062		0.731550		-106.060497		2.734306		-15.779295		6.339946		-35.614839		-4.209101		2.598213		15.783348		2.074414		-3.492919		141.757624		-3.752133		32.606517		48.425082		69.381811		-35.239682		-5.489863		48.736877		138.953622		-0.705320		20.059816		60.263242		-97.600926		-8.758290		-19.006690		-90.000210		
